PathFileType	4	(X/Y/Z)	48_2_10_p0_0-442_filt_butterworth.trc
DataRate	CameraRate	NumFrames	NumMarkers	Units	OrigDataRate	OrigDataStartFrame	OrigNumFrames
60.0	60.0	5	27	m	60.0	110	442
Frame#	Time	RHip			RKnee			RAnkle			RBigToe			RSmallToe			RHeel			LHip			LKnee			LAnkle			LBigToe			LSmallToe			LHeel			Neck			Head			Nose			RShoulder			RElbow			RWrist			RThumb			RIndex			RPinky			LShoulder			LElbow			LWrist			LThumb			LIndex			LPinky			
		X1	Y1	Z1	X2	Y2	Z2	X3	Y3	Z3	X4	Y4	Z4	X5	Y5	Z5	X6	Y6	Z6	X7	Y7	Z7	X8	Y8	Z8	X9	Y9	Z9	X10	Y10	Z10	X11	Y11	Z11	X12	Y12	Z12	X13	Y13	Z13	X14	Y14	Z14	X15	Y15	Z15	X16	Y16	Z16	X17	Y17	Z17	X18	Y18	Z18	X19	Y19	Z19	X20	Y20	Z20	X21	Y21	Z21	X22	Y22	Z22	X23	Y23	Z23	X24	Y24	Z24	X25	Y25	Z25	X26	Y26	Z26	X27	Y27	Z27	
110	1.8333333333333333	0.20771395179647184	0.4548792085927515	0.7023678217137603	0.1704185586299396	0.5714446447120746	1.1490551811362053	0.14754457559872539	0.6814941159371483	1.539157647913217	0.10236567024006066	0.4750028029723108	1.5594824033788768	0.1648774570792808	0.48613831079575565	1.5630655639519955	0.13656931632572067	0.7734995960435723	1.5951188092071948	-0.009548905686821381	0.47053407100959865	0.6884285954596945	-0.02403429631162617	0.6092148352379926	1.127316598516583	-0.01364276345289038	0.701613303864236	1.5267067412802797	-0.05610694491788497	0.4886998362590998	1.529820258214782	-0.09709216195506332	0.5575240161922442	1.5473574618918553	0.006052384369017643	0.7677977423337885	1.592803016491543	0.10767941219029356	0.47208268045175417	0.1717857955651226	0.1095635349700157	0.38594568691814557	-0.07365670428390338	0.09841996052312044	0.33639087372348503	0.05934804326287156	0.2559720179202191	0.4257962151899675	0.2519725676039123	0.4188463896274453	0.3897561676566299	0.43597389816036397	0.40836117494365165	0.19847212819879317	0.30951141510661695	0.34540849653414085	0.1283567468285061	0.21239400951987897	0.3589710394773479	0.14133111920771868	0.21847906586127838	0.3927247560374992	0.15688947011683907	0.2709303725700882	-0.06130814668354049	0.4558321803257746	0.24758667481347363	-0.14577628671246842	0.5131963179561012	0.45135431466708065	-0.14452103470061464	0.21315487388021168	0.4778280186812436	-0.11486063297895276	0.08347632352016514	0.4640835953697984	-0.12051630994111237	0.08029595890110525	0.48718588393768447	-0.148503575953568	0.1479781242265656	0.5211004369870772
111	1.85	0.2077849127917233	0.45507197666205257	0.701507022297734	0.17079152288131616	0.5715311265595286	1.149375780419982	0.14754723687511187	0.6813866644951393	1.5391310827406377	0.10085704304819143	0.4745890825371566	1.559005931783135	0.16483916078519556	0.4859614591804182	1.5629201887042345	0.1361701809855403	0.7734227890449619	1.5962534751741058	-0.01036664479482874	0.47073075249845314	0.6889186880314748	-0.02393355506553547	0.6092432963538421	1.1273083949066682	-0.013985431661672092	0.7013587237667381	1.5251789066686823	-0.0552357520328546	0.48875171523849664	1.5298974705004698	-0.09608885975052814	0.5573090301529093	1.5467703740309016	0.0056666054562811985	0.7675485420816471	1.5930785586359788	0.10761185209963536	0.4720335214014556	0.1713812016941645	0.10953952583368597	0.38575941467866764	-0.07341189227694353	0.09794180309520925	0.3354254140551186	0.05943907824542828	0.25569834032504357	0.4255613875998774	0.2512413242162716	0.4196764563243988	0.3902412938301091	0.4337645033797834	0.4084720852255675	0.19808583712335034	0.3067079034886342	0.3467341117811087	0.1326315882941435	0.2045233379485595	0.3626366200497508	0.14489330468700637	0.21236673230293648	0.39461778525755614	0.1550465528361485	0.2584164312632324	-0.0613006391595632	0.45581083807606776	0.2476065312044168	-0.14582291629404476	0.5132860643789534	0.450834699420352	-0.1444407441868883	0.21485675872098323	0.46892889853189684	-0.1153797167424311	0.08159891991986702	0.4511695332509196	-0.12231687435331862	0.07940805036239404	0.4753017017234401	-0.15123800851842534	0.14598397580303485	0.5124005597614546
112	1.8666666666666667	0.20795597972991395	0.455189336020827	0.7005586933354374	0.1715276312724343	0.5721156940387699	1.1496999274014554	0.146880485745316	0.6798460213995534	1.5384137397686044	0.09973655715197033	0.47426183066864624	1.5586087178828252	0.16489773277093522	0.4861092468434366	1.5628308823039043	0.1355585968477097	0.773241172242435	1.597732656344051	-0.011265341416086008	0.47102509336488474	0.6895291825388908	-0.024265562745662567	0.6090925719216141	1.1272299550523932	-0.014110780368019299	0.7014588072465502	1.5248487907493926	-0.0537348640737199	0.4890579772236573	1.530179113578815	-0.0952803335113828	0.5571343564068819	1.545650657950566	0.00549362643296121	0.7673864300177731	1.593693277469038	0.10756341472832989	0.4715855169835143	0.17039183106465616	0.1096257290922109	0.38563542075354584	-0.07322166871661528	0.09673869479819823	0.33264076546542803	0.0595994178174936	0.25575569328961545	0.425260353078835	0.25050767199427715	0.42067228904155074	0.3904677120851308	0.43135152315985503	0.4087633737502773	0.19800759115290134	0.3038365277895828	0.3473687358238734	0.13492884526397278	0.193725886077537	0.3658610104716433	0.14675662496260364	0.2042266003273906	0.3968029496526736	0.15504884197869934	0.24594372215164526	-0.06121303559739061	0.4558147731437574	0.2472208343222701	-0.14636261785226307	0.5120607684006152	0.451031825090805	-0.1445011365055187	0.22044236641190412	0.46075633537885896	-0.11609532467246304	0.08279969842211701	0.440473386154128	-0.12414324655755374	0.0787557993490801	0.4594479204439389	-0.1541858247387131	0.14580481582324797	0.5072704610219839
113	1.8833333333333333	0.20817792032048227	0.45520649292114446	0.6994330647301987	0.17209796891427592	0.5728644990090451	1.1498552000335664	0.14539658638502828	0.6761020173712364	1.536649562203079	0.09929412140981629	0.4740694841119263	1.5583700551004562	0.1650149325948352	0.48655663497020474	1.5628499052677998	0.13506936106226836	0.7730083298792725	1.5988771555594623	-0.011743949059835935	0.4712186510830327	0.6894080792698263	-0.025359998966250897	0.6086976316606686	1.1270370161474679	-0.013995119466996496	0.7015530259911105	1.525653536197668	-0.05217862430690909	0.4894778777853135	1.5305367283213631	-0.09440983465675379	0.557053476139915	1.5448800636488107	0.005630653468023222	0.7674367191637127	1.5942320530481597	0.10770360543104093	0.4699382581393617	0.16915436992989424	0.10962439630624522	0.3856901269873674	-0.07321451495054705	0.09519867570447704	0.3289169345713066	0.059689744799552774	0.2559107998485993	0.42512184715728085	0.24974118649987953	0.4221163578760261	0.39050950717788446	0.4283339739607142	0.4089856602236219	0.1980188870783938	0.29979803939716154	0.3474005779900151	0.13549432963891242	0.18117116613247264	0.36738511013376407	0.1470414341346829	0.19389970109929985	0.39799921147729106	0.15657438772182675	0.23558544307504195	-0.0610102793655554	0.4557838270402699	0.24631485662308172	-0.14753605004989737	0.508869275260102	0.4508944964726392	-0.14563996663948223	0.22635307952081482	0.45317596035712304	-0.11727553533263275	0.08568527593941572	0.4322920537442314	-0.12584344991064014	0.07903430849425386	0.44327991080800866	-0.15633263149971915	0.14580357954036388	0.503205001914598
114	1.9	0.20831147194444607	0.45504935218605164	0.6984412016843665	0.17236381719794389	0.5733988215827923	1.1498703198797855	0.14352786320840222	0.6712400024854333	1.5343567964418572	0.09923990828841427	0.4738897434346971	1.558206287496882	0.1650978769202019	0.4869401616557961	1.562921226453446	0.1349093555835491	0.7728381395190224	1.5992736947016502	-0.011777499943797315	0.4712521954282598	0.6887569229067011	-0.026913216737142365	0.6081926684816015	1.1267921181111147	-0.013708173050692838	0.7017296504260369	1.5270514711841399	-0.05114019745159916	0.4898555501312817	1.5307966719762671	-0.09318893764549974	0.5571532706990451	1.5446232381473928	0.006019815643031061	0.7675282178477615	1.5940251546245745	0.10820960153874942	0.46640868958114867	0.1682452822550919	0.10936106259248872	0.386824593577485	-0.07366231696585396	0.09408271415430944	0.32605862086384135	0.05970863027521637	0.2560657182023639	0.4251822506904859	0.24873108282022544	0.4237397238342486	0.3905168874403977	0.4246393756835055	0.4089191953525035	0.19783353822319605	0.2934122586192823	0.3470838362589305	0.1351476206248466	0.16863978903690602	0.36730367877516834	0.14687824028080376	0.18161195853356332	0.39814248532696134	0.15871549858020315	0.22852325170754	-0.060748947376757234	0.45562863642490203	0.24519978268260492	-0.14881653783403687	0.5046653316032614	0.44926549167536617	-0.14847631981909257	0.2309835140336999	0.44597416689437414	-0.11892481485061912	0.08870985589466895	0.4255486192047594	-0.127757045144919	0.0808999466425834	0.43091260609816423	-0.15704474447780226	0.14468714441395517	0.4970580872867695
